<svg width="33" height="33" viewBox="0 0 33 33" fill="none" xmlns="http://www.w3.org/2000/svg">
<path fill-rule="evenodd" clip-rule="evenodd" d="M16.333 0.5C7.50004 0.5 0.333008 7.66703 0.333008 16.5C0.333008 25.333 7.50004 32.5 16.333 32.5C25.1486 32.5 32.333 25.333 32.333 16.5C32.333 7.66703 25.1486 0.5 16.333 0.5ZM26.9013 7.87527C28.8102 10.2006 29.9556 13.1681 29.9903 16.3785C29.5391 16.2918 25.0271 15.372 20.4805 15.9447C20.3764 15.7191 20.2896 15.4761 20.1855 15.2332C19.9078 14.5738 19.5955 13.897 19.2831 13.2549C24.3156 11.2072 26.6063 8.25705 26.9013 7.87527ZM16.333 2.86009C19.8037 2.86009 22.9794 4.16161 25.3916 6.2961C25.1486 6.64317 23.0835 9.40239 18.2245 11.2245C15.9859 7.11171 13.5044 3.74512 13.1226 3.22451C14.1464 2.98156 15.2224 2.86009 16.333 2.86009ZM10.5196 4.14425C10.884 4.63015 13.3135 8.0141 15.5868 12.0401C9.20069 13.7408 3.56078 13.7061 2.9534 13.7061C3.83843 9.4718 6.70177 5.94902 10.5196 4.14425ZM2.65839 16.5174C2.65839 16.3785 2.65839 16.2397 2.65839 16.1009C3.24841 16.1182 9.87748 16.205 16.6974 14.1573C17.0966 14.9208 17.461 15.7017 17.8081 16.4826C17.6345 16.5347 17.4436 16.5868 17.2701 16.6388C10.2245 18.9121 6.47618 25.1247 6.16381 25.6453C3.99461 23.2332 2.65839 20.0228 2.65839 16.5174ZM16.333 30.1746C13.1746 30.1746 10.2593 29.0987 7.95123 27.2939C8.19418 26.7907 10.9707 21.4458 18.6757 18.756C18.7104 18.7386 18.7278 18.7386 18.7625 18.7213C20.6887 23.7017 21.4697 27.8839 21.6779 29.0813C20.0293 29.7928 18.2245 30.1746 16.333 30.1746ZM23.9512 27.8319C23.8124 26.9989 23.0835 23.0076 21.2961 18.0965C25.5825 17.4197 29.3308 18.5304 29.7994 18.6866C29.2094 22.487 27.0228 25.7668 23.9512 27.8319Z" fill="white"/>
</svg>
